<svg width="1189" height="725" viewBox="0 0 1189 725" fill="none" xmlns="http://www.w3.org/2000/svg">
<path d="M153.125 675.436C116.754 613.85 74.7735 509.268 45.1996 462.767C37.1175 450.059 33.6353 433.486 39.3369 419.547C101.193 268.319 128.384 127.221 248.237 42.1417C257.926 35.2635 270.679 34.8088 281.362 40.0098C435.642 115.114 494.426 109.038 661.822 166.039C671.75 169.42 682.692 168.104 691.812 162.924C720.632 146.557 752.86 131.952 767.111 102.535C773.242 89.8813 782.772 78.124 796.477 74.9824C854.907 61.5891 919.045 48.2827 978.156 39.7581C1007.47 35.5313 1035.02 74.8378 1029.99 104.02C1025.43 130.539 1022.78 159.484 1020.74 184.848C1018.73 210.006 1042.4 250.107 1054.39 272.317C1058.06 279.106 1061.44 285.732 1064.65 290.9C1071.44 301.817 1087.31 302.468 1093.23 313.876C1110.7 347.547 1132.67 427.107 1149.16 477.35C1156.42 499.475 1147.29 534.111 1127.31 546.076C947.8 653.58 828.799 645.074 627.616 540.215C618.107 535.259 606.52 536.067 597.921 542.476L594.923 544.71C589.255 548.935 581.831 549.994 575.208 547.523L570.782 545.872C560.343 541.976 556.343 529.308 562.654 520.124C568.58 511.5 565.456 499.624 556.053 495.033L417.33 427.297C407.786 422.637 396.612 422.704 387.125 427.48L305.058 468.788C295.842 473.427 290.027 482.864 290.027 493.181C290.027 499.981 287.49 506.537 282.912 511.566L243.495 554.859C236.863 562.143 227.189 565.881 217.383 564.948C203.383 563.616 189.964 571.73 186.084 585.247C178.41 611.982 177.072 634.927 180.376 660.854C183.799 687.708 166.891 698.746 153.125 675.436Z" stroke="black" stroke-width="73"/>
<path d="M153.125 675.436C116.754 613.85 74.7735 509.268 45.1996 462.767C37.1175 450.059 33.6353 433.486 39.3369 419.547C101.193 268.319 128.384 127.221 248.237 42.1417C257.926 35.2635 270.679 34.8088 281.362 40.0098C435.642 115.114 494.426 109.038 661.822 166.039C671.75 169.42 682.692 168.104 691.812 162.924C720.632 146.557 752.86 131.952 767.111 102.535C773.242 89.8813 782.772 78.124 796.477 74.9824C854.907 61.5891 919.045 48.2827 978.156 39.7581C1007.47 35.5313 1035.02 74.8378 1029.99 104.02C1025.43 130.539 1022.78 159.484 1020.74 184.848C1018.73 210.006 1042.4 250.107 1054.39 272.317C1058.06 279.106 1061.44 285.732 1064.65 290.9C1071.44 301.817 1087.31 302.468 1093.23 313.876C1110.7 347.547 1132.67 427.107 1149.16 477.35C1156.42 499.475 1147.29 534.111 1127.31 546.076C947.8 653.58 828.799 645.074 627.616 540.215C618.107 535.259 606.52 536.067 597.921 542.476L594.923 544.71C589.255 548.935 581.831 549.994 575.208 547.523L570.782 545.872C560.343 541.976 556.343 529.308 562.654 520.124C568.58 511.5 565.456 499.624 556.053 495.033L417.33 427.297C407.786 422.637 396.612 422.704 387.125 427.48L305.058 468.788C295.842 473.427 290.027 482.864 290.027 493.181C290.027 499.981 287.49 506.537 282.912 511.566L243.495 554.859C236.863 562.143 227.189 565.881 217.383 564.948C203.383 563.616 189.964 571.73 186.084 585.247C178.41 611.982 177.072 634.927 180.376 660.854C183.799 687.708 166.891 698.746 153.125 675.436Z" stroke="#FFFF00" stroke-width="5"/>
</svg>
